<svg width="342.25" height="197.402" viewBox="0 0 342.25 197.402" xmlns="http://www.w3.org/2000/svg"><g id="svgGroup" stroke-linecap="round" fill-rule="evenodd" font-size="9pt" stroke="#850f8d" stroke-width="0.25mm" fill="#850f8d" style="stroke:#850f8d;stroke-width:0.25mm;fill:#850f8d"><path d="M 156.905 27.111 A 1.342 1.342 0 0 0 156.6 26.801 Q 147.6 26.001 139.3 24.801 A 5071.59 5071.59 0 0 0 137.233 24.502 A 4620.216 4620.216 0 0 0 123.2 22.501 Q 115.4 21.401 107.9 20.601 Q 100.4 19.801 93 19.801 A 70.112 70.112 0 0 0 79.022 21.126 A 49.849 49.849 0 0 0 61.1 28.401 Q 48.2 37.001 43.8 51.201 Q 43.8 51.646 43.919 51.953 A 0.981 0.981 0 0 0 44.4 52.501 A 1.344 1.344 0 0 0 44.521 52.554 Q 44.916 52.705 45.311 52.553 A 1.487 1.487 0 0 0 45.6 52.401 Q 50.2 38.601 60.4 32.201 A 36.497 36.497 0 0 1 61.164 31.735 Q 71.157 25.801 85.6 25.801 A 132.715 132.715 0 0 1 92.491 25.984 A 157.407 157.407 0 0 1 104.6 27.101 A 1079.112 1079.112 0 0 1 109.65 27.77 A 1216.739 1216.739 0 0 1 125.4 30.001 Q 120.2 32.001 116.3 35.101 A 32.395 32.395 0 0 0 113.474 37.637 A 38.509 38.509 0 0 0 109.2 42.801 A 38.232 38.232 0 0 0 108.989 43.108 Q 107.406 45.431 105.998 48.225 A 62.243 62.243 0 0 0 103.5 53.901 A 121.302 121.302 0 0 0 102.799 55.77 Q 101.75 58.637 100.719 61.878 A 207.564 207.564 0 0 0 98.6 69.001 Q 97.6 72.601 96.6 76.001 Q 95.6 79.401 94.6 82.601 Q 87 82.801 79.4 83.101 A 431.823 431.823 0 0 0 75.563 83.27 A 485.689 485.689 0 0 0 63.6 84.001 Q 62.85 84.151 61.706 84.582 A 28.937 28.937 0 0 0 60.9 84.901 Q 59.2 85.601 57.7 86.301 Q 56.716 86.76 56.033 87.22 A 6.305 6.305 0 0 0 55.4 87.701 A 3.606 3.606 0 0 0 55.296 87.796 Q 54.642 88.415 55.2 88.601 Q 64.8 87.201 74.3 86.401 Q 83.8 85.601 93.8 85.201 A 257.971 257.971 0 0 1 92.096 90.209 Q 87.673 102.773 82.9 111.901 A 102.681 102.681 0 0 1 81.755 114.031 Q 79.251 118.555 76.562 122.297 A 58.185 58.185 0 0 1 70.5 129.501 A 46.762 46.762 0 0 1 67.288 132.433 A 38.483 38.483 0 0 1 55.8 139.101 A 46.436 46.436 0 0 1 47.721 141.206 A 59.328 59.328 0 0 1 37.8 142.001 Q 33.075 142.001 29.11 141.431 A 39.35 39.35 0 0 1 23.4 140.201 Q 17.4 138.401 13.6 135.101 A 23.482 23.482 0 0 1 13.365 134.893 A 20.223 20.223 0 0 1 8 127.401 A 23.283 23.283 0 0 1 7.013 124.427 A 26.299 26.299 0 0 1 6.2 117.801 A 31.237 31.237 0 0 1 6.321 114.978 Q 6.476 113.269 6.832 111.83 A 13.38 13.38 0 0 1 7.9 108.901 A 14.347 14.347 0 0 1 7.908 108.886 Q 8.863 107.038 10.414 105.347 A 22.565 22.565 0 0 1 13.2 102.801 Q 13.52 102.321 13.393 101.714 A 2.152 2.152 0 0 0 13.3 101.401 Q 13.081 100.816 12.488 100.659 A 1.901 1.901 0 0 0 12 100.601 A 32.172 32.172 0 0 0 10.936 101.367 A 27.374 27.374 0 0 0 3.1 110.401 A 29.08 29.08 0 0 0 1.672 113.482 A 23.166 23.166 0 0 0 0 122.001 A 34.753 34.753 0 0 0 0.454 127.728 A 24.567 24.567 0 0 0 7.2 141.301 A 21.313 21.313 0 0 0 12.624 145.266 Q 16.125 147.078 20.598 147.906 A 45.162 45.162 0 0 0 28.8 148.601 A 79.808 79.808 0 0 0 28.994 148.601 A 63.279 63.279 0 0 0 71.5 133.201 A 75.121 75.121 0 0 0 82.17 121.755 Q 87.873 114.28 92.8 104.562 A 171.273 171.273 0 0 0 101.2 84.801 Q 106 84.601 111.1 84.501 Q 116.2 84.401 121.4 84.401 Q 123 84.001 123.3 83.401 A 0.728 0.728 0 0 0 123.342 83.298 Q 123.484 82.857 122.881 82.531 A 2.692 2.692 0 0 0 122.6 82.401 L 112.1 82.401 Q 107 82.401 102 82.601 Q 103.6 78.401 104.8 74.001 Q 106 69.601 107.4 65.001 Q 109.8 56.201 112.2 50.201 A 78.397 78.397 0 0 1 113.279 47.633 Q 114.186 45.58 115.121 43.816 A 40.691 40.691 0 0 1 117.2 40.301 A 29.133 29.133 0 0 1 119.593 37.17 A 21.605 21.605 0 0 1 122.9 34.101 A 21.215 21.215 0 0 1 124.559 32.988 A 23.502 23.502 0 0 1 130 30.601 Q 134.8 31.401 139.7 32.101 Q 144.6 32.801 149.4 33.201 A 5.015 5.015 0 0 0 149.688 33.192 Q 150.386 33.152 151.133 32.919 A 8.544 8.544 0 0 0 152.4 32.401 Q 154 31.601 155.2 30.601 Q 156.4 29.601 156.9 28.501 A 2.751 2.751 0 0 0 156.962 28.354 Q 157.249 27.611 156.905 27.111 Z M 205.215 101.767 A 1.928 1.928 0 0 0 205 102.201 Q 203.875 105.451 202.008 109.365 A 117.876 117.876 0 0 1 199.5 114.301 Q 195.8 121.201 191.3 127.301 Q 186.8 133.401 182.3 137.701 Q 179.277 140.59 176.84 141.538 A 6.192 6.192 0 0 1 174.6 142.001 A 4.918 4.918 0 0 1 174.36 141.995 Q 171.519 141.856 170.945 138.375 A 12.213 12.213 0 0 1 170.8 136.401 A 30.108 30.108 0 0 1 170.811 135.588 Q 170.86 133.803 171.117 131.809 A 52.81 52.81 0 0 1 171.8 127.801 A 63.511 63.511 0 0 1 171.995 126.9 A 69.467 69.467 0 0 1 174.6 118.101 Q 176.4 113.201 178.9 108.301 A 68.139 68.139 0 0 1 180.181 105.907 A 58.834 58.834 0 0 1 184.4 99.401 Q 184.733 97.905 183.409 97.652 A 3.256 3.256 0 0 0 182.8 97.601 A 60.462 60.462 0 0 0 179.03 99.749 A 75.214 75.214 0 0 0 173.4 103.601 A 108.278 108.278 0 0 0 170.53 105.825 Q 169.198 106.896 168.071 107.885 A 47.86 47.86 0 0 0 165.8 110.001 Q 165.4 110.601 165.9 111.301 A 1.663 1.663 0 0 0 166.046 111.479 Q 166.413 111.866 166.832 111.692 A 0.992 0.992 0 0 0 167 111.601 A 32.612 32.612 0 0 1 167.794 110.834 Q 168.492 110.182 169.313 109.484 A 61.501 61.501 0 0 1 171 108.101 A 158.3 158.3 0 0 1 172.772 106.718 A 132.755 132.755 0 0 1 175.6 104.601 Q 172.8 109.001 170.5 113.701 A 79.28 79.28 0 0 0 169.666 115.46 A 70.294 70.294 0 0 0 166.7 123.001 A 78.287 78.287 0 0 0 165.912 125.565 A 67.204 67.204 0 0 0 164.4 131.901 A 50.749 50.749 0 0 0 163.826 135.778 A 37.863 37.863 0 0 0 163.6 139.801 Q 163.6 142.434 164.072 144.36 A 9.739 9.739 0 0 0 164.8 146.401 Q 166 148.801 168.6 148.801 A 12.939 12.939 0 0 0 169.863 148.618 Q 173.981 147.817 178.842 144.278 A 51.755 51.755 0 0 0 183.3 140.601 A 69.776 69.776 0 0 0 184.5 139.476 Q 188.542 135.595 192.416 130.659 A 117.302 117.302 0 0 0 199.2 121.001 A 1841.272 1841.272 0 0 1 198.652 122.495 A 1669.295 1669.295 0 0 1 194.9 132.601 Q 192.8 138.201 190.6 144.801 Q 187.35 153.676 184.217 160.676 A 144.132 144.132 0 0 1 180.5 168.401 Q 175.6 177.801 170.3 183.401 A 36.221 36.221 0 0 1 165.548 187.65 A 26.316 26.316 0 0 1 159.1 191.201 A 33.491 33.491 0 0 1 154.521 192.541 A 39.011 39.011 0 0 1 146.2 193.401 A 33.034 33.034 0 0 1 143.436 193.289 Q 140.514 193.044 138.111 192.258 A 15.013 15.013 0 0 1 131.6 188.201 A 17.424 17.424 0 0 1 127.525 180.647 A 23.92 23.92 0 0 1 126.8 174.601 Q 126.8 169.801 130 166.001 A 0.591 0.591 0 0 0 130.178 165.566 Q 130.178 165.336 130.035 165.041 A 2.626 2.626 0 0 0 129.9 164.801 A 2.359 2.359 0 0 0 129.87 164.754 Q 129.382 164.013 128.8 164.401 A 22.414 22.414 0 0 0 126.877 166.014 A 17.974 17.974 0 0 0 122.9 171.401 Q 121 175.401 121 179.001 A 21.797 21.797 0 0 0 121.006 179.486 A 17.407 17.407 0 0 0 126.5 192.101 Q 130.281 195.745 136.473 196.883 A 33.922 33.922 0 0 0 142.6 197.401 Q 150.2 197.401 157.4 194.801 Q 164.6 192.201 171.3 186.301 A 52.718 52.718 0 0 0 172.298 185.399 Q 178.456 179.691 184.1 170.901 Q 190.2 161.401 195.6 147.401 Q 200.4 134.801 204.6 123.101 A 6406.079 6406.079 0 0 0 204.863 122.369 A 6998.333 6998.333 0 0 0 213.2 99.001 A 2.362 2.362 0 0 0 213.214 98.951 Q 213.512 97.812 212.301 97.634 A 3.464 3.464 0 0 0 211.8 97.601 Q 211.2 97.601 210.1 98.101 A 11.354 11.354 0 0 0 209.275 98.518 A 13.545 13.545 0 0 0 207.9 99.401 A 36.928 36.928 0 0 0 207.597 99.624 Q 206.688 100.299 206 100.901 Q 205.481 101.355 205.215 101.767 Z M 303.433 0.38 A 8.505 8.505 0 0 0 300.8 0.001 A 22.427 22.427 0 0 0 292.417 1.693 A 31.89 31.89 0 0 0 286.6 4.801 A 53.081 53.081 0 0 0 285.588 5.493 Q 282.048 7.973 278.532 11.277 A 87.841 87.841 0 0 0 272.3 17.801 A 130.224 130.224 0 0 0 266.164 25.473 A 165.275 165.275 0 0 0 258.5 36.801 Q 251.8 47.601 245.8 59.401 Q 239.8 71.201 234.7 83.301 A 337.027 337.027 0 0 0 231.086 92.221 A 279.092 279.092 0 0 0 226 106.401 Q 224.088 112.245 222.627 117.496 A 180.996 180.996 0 0 0 220.4 126.301 Q 219.025 132.42 218.596 136.979 A 40.95 40.95 0 0 0 218.4 140.801 Q 218.4 142.615 218.807 144.048 A 7.274 7.274 0 0 0 220 146.501 A 6.616 6.616 0 0 0 220.101 146.63 Q 221.681 148.601 224.2 148.601 A 6.543 6.543 0 0 0 225.211 148.52 Q 228.293 148.038 232.4 144.701 Q 237.2 140.801 241.2 134.601 Q 241.257 134.372 241.257 134.168 A 1.181 1.181 0 0 0 240.9 133.301 A 1.382 1.382 0 0 0 240.88 133.281 Q 240.472 132.889 239.997 133.093 A 1.232 1.232 0 0 0 239.8 133.201 Q 237.738 135.951 236.006 137.755 A 23.245 23.245 0 0 1 234.5 139.201 A 11.441 11.441 0 0 1 234.266 139.399 Q 232.078 141.201 229.8 141.201 A 2.724 2.724 0 0 1 227.756 140.386 Q 226.803 139.404 226.52 137.24 A 15.82 15.82 0 0 1 226.4 135.201 A 45.279 45.279 0 0 1 226.406 134.479 Q 226.488 129.335 227.724 122.254 A 158.104 158.104 0 0 1 229.2 114.901 A 214.019 214.019 0 0 1 232.052 103.657 A 269.38 269.38 0 0 1 236.9 88.301 Q 241.8 74.201 248.5 60.001 A 215.292 215.292 0 0 1 253.236 50.557 A 178.998 178.998 0 0 1 263 34.301 Q 270.8 22.801 279.2 15.601 Q 287.6 8.401 296.2 8.401 Q 298.967 8.401 300.825 9.034 A 6.559 6.559 0 0 1 302.7 10.001 A 5.63 5.63 0 0 1 303.344 10.57 Q 304.506 11.776 304.463 13.367 A 4.617 4.617 0 0 1 304.4 14.001 A 1.777 1.777 0 0 0 304.739 14.597 A 2.221 2.221 0 0 0 305.2 15.001 Q 305.8 15.401 306.2 15.001 A 17.751 17.751 0 0 0 307.414 12.079 Q 308.588 8.282 307.5 4.801 A 9.2 9.2 0 0 0 307.159 3.88 Q 306.002 1.214 303.433 0.38 Z M 340.853 135.668 A 1.301 1.301 0 0 0 340.6 135.801 Q 337.147 140.449 334.135 142.011 A 6.372 6.372 0 0 1 331.2 142.801 Q 328.6 142.801 328.113 139.5 A 11.693 11.693 0 0 1 328 137.801 A 34.471 34.471 0 0 1 328.015 136.81 Q 328.115 133.32 328.918 129.514 A 56.957 56.957 0 0 1 330.9 122.501 Q 333.8 114.201 338 106.601 A 14.326 14.326 0 0 0 338.423 105.585 A 11.947 11.947 0 0 0 339.2 101.401 A 3.508 3.508 0 0 0 338.742 99.642 A 4.323 4.323 0 0 0 337.9 98.601 Q 337.026 97.793 335.653 97.529 A 7.695 7.695 0 0 0 334.2 97.401 A 13.165 13.165 0 0 0 333.677 97.411 Q 330.304 97.545 326.5 99.401 A 36.291 36.291 0 0 0 322.913 101.419 A 45.808 45.808 0 0 0 318.3 104.801 A 48.361 48.361 0 0 0 315.019 107.794 A 59.58 59.58 0 0 0 310.4 113.001 Q 306.6 117.801 303.8 123.201 Q 305.4 118.401 306.8 113.501 Q 308.2 108.601 309 104.201 Q 310.309 98.638 307.202 97.626 A 5.173 5.173 0 0 0 305.6 97.401 A 10.628 10.628 0 0 0 300.398 98.772 A 14.704 14.704 0 0 0 297.4 101.001 Q 295.381 102.913 293.814 104.769 A 31.861 31.861 0 0 0 291.4 108.001 A 1.079 1.079 0 0 0 291.343 108.344 Q 291.343 108.772 291.7 109.201 A 1.947 1.947 0 0 0 291.766 109.276 Q 292.227 109.774 292.6 109.401 A 54.061 54.061 0 0 1 293.41 108.255 Q 295.171 105.83 296.8 104.201 A 9.948 9.948 0 0 1 297.488 103.572 Q 299.144 102.201 300.8 102.201 Q 303 102.201 302.2 106.001 Q 299.4 116.601 295.7 127.401 Q 292 138.201 288.6 146.801 Q 288.092 148.325 289.591 148.558 A 3.975 3.975 0 0 0 290.2 148.601 A 8.208 8.208 0 0 0 291.903 148.415 A 10.957 10.957 0 0 0 293.6 147.901 A 6.246 6.246 0 0 0 294.363 147.548 Q 294.804 147.303 295.12 147.014 A 2.4 2.4 0 0 0 295.8 146.001 Q 303.4 124.201 312.3 114.001 Q 317.932 107.546 322.964 105.176 A 13.202 13.202 0 0 1 328.6 103.801 A 2.925 2.925 0 0 1 329.147 103.849 Q 330.234 104.056 330.508 105.157 A 3.507 3.507 0 0 1 330.6 106.001 A 5.076 5.076 0 0 1 330.399 107.404 A 6.331 6.331 0 0 1 329.8 108.801 A 109.752 109.752 0 0 0 328.289 111.947 A 96.316 96.316 0 0 0 323.2 125.501 A 77.199 77.199 0 0 0 322.901 126.564 Q 321.888 130.266 321.363 133.661 A 45.52 45.52 0 0 0 320.8 140.601 Q 320.8 146.538 324.215 148.069 A 6.759 6.759 0 0 0 327 148.601 A 8.349 8.349 0 0 0 329.605 148.164 Q 332.048 147.365 334.7 145.101 A 45.2 45.2 0 0 0 335.337 144.547 A 48.79 48.79 0 0 0 342.2 137.001 Q 342.34 136.44 342.087 136.076 A 1.059 1.059 0 0 0 341.8 135.801 Q 341.327 135.485 340.853 135.668 Z M 156.4 106.201 Q 156.4 109.001 154.2 111.401 A 16.523 16.523 0 0 1 151.786 113.541 Q 150.537 114.458 149.002 115.285 A 29.65 29.65 0 0 1 148.2 115.701 A 55.617 55.617 0 0 1 143.852 117.635 A 74.335 74.335 0 0 1 139.5 119.201 A 168.322 168.322 0 0 1 131.869 121.488 A 189.44 189.44 0 0 1 129.2 122.201 Q 129 124.401 128.9 126.601 Q 128.8 128.801 128.8 131.401 A 18.864 18.864 0 0 0 129.163 135.199 Q 129.694 137.782 131 139.801 A 7.761 7.761 0 0 0 132.994 141.938 Q 134.763 143.201 137.2 143.201 A 14.872 14.872 0 0 0 144.7 141.201 A 22.252 22.252 0 0 0 149.926 137.027 A 26.083 26.083 0 0 0 151 135.801 Q 151.731 135.435 152.128 135.904 A 1.053 1.053 0 0 1 152.2 136.001 Q 152.6 136.601 152.2 137.401 A 32.015 32.015 0 0 1 144.175 144.989 A 36.326 36.326 0 0 1 143.7 145.301 A 20.649 20.649 0 0 1 137.636 148.013 A 18.46 18.46 0 0 1 133 148.601 A 12.995 12.995 0 0 1 128.951 147.996 A 10.784 10.784 0 0 1 124.5 145.201 A 10.802 10.802 0 0 1 122 140.922 Q 121.451 139.225 121.279 137.161 A 23.606 23.606 0 0 1 121.2 135.201 A 36.926 36.926 0 0 1 121.976 127.829 A 47.415 47.415 0 0 1 123.4 122.501 Q 125.6 115.801 129.2 110.201 A 38.51 38.51 0 0 1 133.996 104.118 A 32.432 32.432 0 0 1 137.5 101.001 Q 142.2 97.401 147.4 97.401 A 8.779 8.779 0 0 1 151.344 98.279 A 8.845 8.845 0 0 1 153.8 100.101 A 9.772 9.772 0 0 1 155.578 102.597 A 8.13 8.13 0 0 1 156.4 106.201 Z M 274.772 97.77 A 12.777 12.777 0 0 0 271.6 97.401 Q 266.4 97.401 261.7 101.001 A 34.533 34.533 0 0 0 258.316 103.968 A 40.719 40.719 0 0 0 253.3 110.101 Q 249.6 115.601 247.4 122.001 A 43.744 43.744 0 0 0 245.896 127.448 A 32.693 32.693 0 0 0 245.2 134.001 Q 245.2 138.048 246.136 141.025 A 12.757 12.757 0 0 0 248 144.801 A 11.381 11.381 0 0 0 248.126 144.968 Q 250.907 148.601 255.6 148.601 Q 258.35 148.601 261.431 146.994 A 23.331 23.331 0 0 0 264.3 145.201 Q 269 141.801 273 136.301 A 49.189 49.189 0 0 0 274.216 134.55 A 53.756 53.756 0 0 0 279.6 124.001 A 42.888 42.888 0 0 0 280.065 122.726 A 37.438 37.438 0 0 0 282.2 110.401 A 24.62 24.62 0 0 0 282.18 109.398 Q 282.093 107.263 281.629 105.447 A 13.011 13.011 0 0 0 279.6 101.001 A 8.29 8.29 0 0 0 274.772 97.77 Z M 259.6 142.401 A 9.096 9.096 0 0 0 263.541 141.475 A 12.497 12.497 0 0 0 265.5 140.301 A 18.374 18.374 0 0 0 269.005 136.942 A 23.177 23.177 0 0 0 270.6 134.701 A 28.52 28.52 0 0 0 272.999 129.896 A 35.714 35.714 0 0 0 274.1 126.601 Q 275.4 122.001 275.4 117.001 Q 275.4 111.001 273.4 107.501 Q 271.4 104.001 266.8 104.001 A 8.902 8.902 0 0 0 262.613 105.074 A 11.981 11.981 0 0 0 261 106.101 A 17.662 17.662 0 0 0 257.774 109.273 A 22.572 22.572 0 0 0 256.1 111.701 A 27.391 27.391 0 0 0 253.973 116.149 A 35.685 35.685 0 0 0 252.8 119.901 A 39.337 39.337 0 0 0 251.619 128.509 A 44.275 44.275 0 0 0 251.6 129.801 Q 251.6 138.483 255.399 141.183 A 7.066 7.066 0 0 0 259.6 142.401 Z M 143.2 102.601 A 10.114 10.114 0 0 0 136.743 104.946 A 14.666 14.666 0 0 0 135 106.601 A 16.13 16.13 0 0 0 132.626 110.159 Q 130.813 113.759 129.8 119.201 A 74.794 74.794 0 0 0 134.797 118.31 Q 140.666 117.041 143.9 115.101 A 14.676 14.676 0 0 0 145.869 113.707 Q 148.4 111.551 148.4 109.001 Q 148.4 106.201 147 104.401 A 4.478 4.478 0 0 0 143.731 102.624 A 5.977 5.977 0 0 0 143.2 102.601 Z" vector-effect="non-scaling-stroke"/></g></svg>