<svg width="157.093" height="128.811" viewBox="0 0 157.093 128.811" xmlns="http://www.w3.org/2000/svg"><g id="svgGroup" stroke-linecap="round" fill-rule="evenodd" font-size="9pt" stroke="#850f8d" stroke-width="0.25mm" fill="#850f8d" style="stroke:#850f8d;stroke-width:0.25mm;fill:#850f8d"><path d="M 156.905 7.312 A 1.342 1.342 0 0 0 156.6 7.001 Q 147.6 6.201 139.3 5.001 A 5071.59 5071.59 0 0 0 137.233 4.703 A 4620.216 4620.216 0 0 0 123.2 2.701 Q 115.4 1.601 107.9 0.801 Q 100.4 0.001 93 0.001 A 70.112 70.112 0 0 0 79.022 1.327 A 49.849 49.849 0 0 0 61.1 8.601 Q 48.2 17.201 43.8 31.401 Q 43.8 31.846 43.919 32.153 A 0.981 0.981 0 0 0 44.4 32.701 A 1.344 1.344 0 0 0 44.521 32.754 Q 44.916 32.906 45.311 32.753 A 1.487 1.487 0 0 0 45.6 32.601 Q 50.2 18.801 60.4 12.401 A 36.497 36.497 0 0 1 61.164 11.935 Q 71.157 6.001 85.6 6.001 A 132.715 132.715 0 0 1 92.491 6.184 A 157.407 157.407 0 0 1 104.6 7.301 A 1079.112 1079.112 0 0 1 109.65 7.97 A 1216.739 1216.739 0 0 1 125.4 10.201 Q 120.2 12.201 116.3 15.301 A 32.395 32.395 0 0 0 113.474 17.837 A 38.509 38.509 0 0 0 109.2 23.001 A 38.232 38.232 0 0 0 108.989 23.309 Q 107.406 25.631 105.998 28.425 A 62.243 62.243 0 0 0 103.5 34.101 A 121.302 121.302 0 0 0 102.799 35.971 Q 101.75 38.838 100.719 42.078 A 207.564 207.564 0 0 0 98.6 49.201 Q 97.6 52.801 96.6 56.201 Q 95.6 59.601 94.6 62.801 Q 87 63.001 79.4 63.301 A 431.823 431.823 0 0 0 75.563 63.47 A 485.689 485.689 0 0 0 63.6 64.201 Q 62.85 64.351 61.706 64.782 A 28.937 28.937 0 0 0 60.9 65.101 Q 59.2 65.801 57.7 66.501 Q 56.716 66.961 56.033 67.42 A 6.305 6.305 0 0 0 55.4 67.901 A 3.606 3.606 0 0 0 55.296 67.996 Q 54.642 68.615 55.2 68.801 Q 64.8 67.401 74.3 66.601 Q 83.8 65.801 93.8 65.401 A 257.971 257.971 0 0 1 92.096 70.41 Q 87.673 82.973 82.9 92.101 A 102.681 102.681 0 0 1 81.755 94.231 Q 79.251 98.755 76.562 102.497 A 58.185 58.185 0 0 1 70.5 109.701 A 46.762 46.762 0 0 1 67.288 112.633 A 38.483 38.483 0 0 1 55.8 119.301 A 46.436 46.436 0 0 1 47.721 121.407 A 59.328 59.328 0 0 1 37.8 122.201 Q 33.075 122.201 29.11 121.632 A 39.35 39.35 0 0 1 23.4 120.401 Q 17.4 118.601 13.6 115.301 A 23.482 23.482 0 0 1 13.365 115.094 A 20.223 20.223 0 0 1 8 107.601 A 23.283 23.283 0 0 1 7.013 104.628 A 26.299 26.299 0 0 1 6.2 98.001 A 31.237 31.237 0 0 1 6.321 95.179 Q 6.476 93.469 6.832 92.03 A 13.38 13.38 0 0 1 7.9 89.101 A 14.347 14.347 0 0 1 7.908 89.087 Q 8.863 87.238 10.414 85.547 A 22.565 22.565 0 0 1 13.2 83.001 Q 13.52 82.522 13.393 81.915 A 2.152 2.152 0 0 0 13.3 81.601 Q 13.081 81.017 12.488 80.859 A 1.901 1.901 0 0 0 12 80.801 A 32.172 32.172 0 0 0 10.936 81.567 A 27.374 27.374 0 0 0 3.1 90.601 A 29.08 29.08 0 0 0 1.672 93.682 A 23.166 23.166 0 0 0 0 102.201 A 34.753 34.753 0 0 0 0.454 107.929 A 24.567 24.567 0 0 0 7.2 121.501 A 21.313 21.313 0 0 0 12.624 125.466 Q 16.125 127.279 20.598 128.106 A 45.162 45.162 0 0 0 28.8 128.801 A 79.808 79.808 0 0 0 28.994 128.801 A 63.279 63.279 0 0 0 71.5 113.401 A 75.121 75.121 0 0 0 82.17 101.955 Q 87.873 94.48 92.8 84.762 A 171.273 171.273 0 0 0 101.2 65.001 Q 106 64.801 111.1 64.701 Q 116.2 64.601 121.4 64.601 Q 123 64.201 123.3 63.601 A 0.728 0.728 0 0 0 123.342 63.499 Q 123.484 63.058 122.881 62.731 A 2.692 2.692 0 0 0 122.6 62.601 L 112.1 62.601 Q 107 62.601 102 62.801 Q 103.6 58.601 104.8 54.201 Q 106 49.801 107.4 45.201 Q 109.8 36.401 112.2 30.401 A 78.397 78.397 0 0 1 113.279 27.833 Q 114.186 25.78 115.121 24.016 A 40.691 40.691 0 0 1 117.2 20.501 A 29.133 29.133 0 0 1 119.593 17.37 A 21.605 21.605 0 0 1 122.9 14.301 A 21.215 21.215 0 0 1 124.559 13.188 A 23.502 23.502 0 0 1 130 10.801 Q 134.8 11.601 139.7 12.301 Q 144.6 13.001 149.4 13.401 A 5.015 5.015 0 0 0 149.688 13.393 Q 150.386 13.353 151.133 13.119 A 8.544 8.544 0 0 0 152.4 12.601 Q 154 11.801 155.2 10.801 Q 156.4 9.801 156.9 8.701 A 2.751 2.751 0 0 0 156.962 8.555 Q 157.249 7.812 156.905 7.312 Z" vector-effect="non-scaling-stroke"/></g></svg>